<?xml version="1.0" encoding="UTF-8" standalone="no"?>
<!-- Created with Inkscape (http://www.inkscape.org/) -->

<svg
   width="200"
   height="200"
   viewBox="0 0 52.916667 52.916667"
   version="1.1"
   id="svg1"
   inkscape:version="1.2.2 (b0a8486541, 2022-12-01)"
   sodipodi:docname="ccli_settings.svg"
   xmlns:inkscape="http://www.inkscape.org/namespaces/inkscape"
   xmlns:sodipodi="http://sodipodi.sourceforge.net/DTD/sodipodi-0.dtd"
   xmlns="http://www.w3.org/2000/svg"
   xmlns:svg="http://www.w3.org/2000/svg">
  <sodipodi:namedview
     id="namedview1"
     pagecolor="#ffffff"
     bordercolor="#000000"
     borderopacity="0.25"
     inkscape:showpageshadow="2"
     inkscape:pageopacity="0.0"
     inkscape:pagecheckerboard="0"
     inkscape:deskcolor="#d1d1d1"
     inkscape:document-units="mm"
     inkscape:zoom="1.4805977"
     inkscape:cx="45.927398"
     inkscape:cy="147.23784"
     inkscape:window-width="1854"
     inkscape:window-height="1005"
     inkscape:window-x="66"
     inkscape:window-y="29"
     inkscape:window-maximized="1"
     inkscape:current-layer="layer1"
     showgrid="true">
    <inkscape:grid
       id="grid5"
       units="px"
       originx="0"
       originy="0"
       spacingx="0.26458333"
       spacingy="0.26458333"
       empcolor="#0099e5"
       empopacity="0.30196078"
       color="#0099e5"
       opacity="0.14901961"
       empspacing="5"
       dotted="false"
       gridanglex="30"
       gridanglez="30"
       visible="true" />
  </sodipodi:namedview>
  <defs
     id="defs1" />
  <g
     inkscape:label="Layer 1"
     inkscape:groupmode="layer"
     id="layer1">
    <rect
       style="fill:none;fill-opacity:1;stroke-width:3.175;stroke-linejoin:round;stroke:#6060c0;stroke-opacity:1;stroke-dasharray:none"
       id="rect5"
       width="47.624996"
       height="47.624996"
       x="2.645833"
       y="2.645833"
       rx="1"
       ry="1" />
    <path
       d="M 17.098838,8.0590568 V 9.5385331 Q 16.390357,8.8786728 15.584633,8.5522155 14.785854,8.2257583 13.882888,8.2257583 q -1.77815,0 -2.722793,1.0905061 -0.944642,1.0835596 -0.944642,3.1395456 0,2.04904 0.944642,3.139546 0.944643,1.083561 2.722793,1.083561 0.902966,0 1.701745,-0.326458 0.805724,-0.326457 1.514205,-0.986317 v 1.465584 q -0.736265,0.500105 -1.562827,0.750157 -0.819616,0.250053 -1.736474,0.250053 -2.35466,0 -3.70911,-1.437801 -1.3544501,-1.444747 -1.3544501,-3.938325 0,-2.500523 1.3544501,-3.9383239 1.35445,-1.4447469 3.70911,-1.4447469 0.93075,0 1.750366,0.2500523 0.826562,0.2431065 1.548935,0.7362653 z"
       style="font-weight:normal;font-size:14.2252px;line-height:9.17526px;font-family:'DejaVu Sans';-inkscape-font-specification:'DejaVu Sans';text-align:start;letter-spacing:0.407458px;word-spacing:0.777941px;text-anchor:start;fill:#6060c0;stroke:#6060c0;stroke-width:2.22269;stroke-linejoin:round"
       id="path341" />
    <path
       d="m 28.513197,17.591505 v 1.479476 q -0.708482,-0.65986 -1.514206,-0.986318 -0.798779,-0.326457 -1.701745,-0.326457 -1.77815,0 -2.722792,1.090506 -0.944643,1.08356 -0.944643,3.139546 0,2.04904 0.944643,3.139546 0.944642,1.08356 2.722792,1.08356 0.902966,0 1.701745,-0.326457 0.805724,-0.326457 1.514206,-0.986317 v 1.465584 q -0.736266,0.500105 -1.562827,0.750157 -0.819616,0.250053 -1.736475,0.250053 -2.35466,0 -3.70911,-1.437801 -1.35445,-1.444747 -1.35445,-3.938325 0,-2.500523 1.35445,-3.938324 1.35445,-1.444747 3.70911,-1.444747 0.93075,0 1.750366,0.250052 0.826562,0.243107 1.548936,0.736266 z"
       style="font-weight:normal;font-size:14.2252px;line-height:9.17526px;font-family:'DejaVu Sans';-inkscape-font-specification:'DejaVu Sans';text-align:start;letter-spacing:0.407458px;word-spacing:0.777941px;text-anchor:start;fill:#6060c0;stroke:#6060c0;stroke-width:2.22269;stroke-linejoin:round"
       id="path343" />
    <path
       d="m 32.16204,26.325174 h 1.403072 v 9.189424 h 5.049668 v 1.180803 h -6.45274 z"
       style="font-weight:normal;font-size:14.2252px;line-height:9.17526px;font-family:'DejaVu Sans';-inkscape-font-specification:'DejaVu Sans';text-align:start;letter-spacing:0.407458px;word-spacing:0.777941px;text-anchor:start;fill:#6060c0;stroke:#6060c0;stroke-width:2.22269;stroke-linejoin:round"
       id="path345" />
    <path
       d="m 43.576397,35.857622 h 1.403071 v 10.370226 h -1.403071 z"
       style="font-weight:normal;font-size:14.2252px;line-height:9.17526px;font-family:'DejaVu Sans';-inkscape-font-specification:'DejaVu Sans';text-align:start;letter-spacing:0.407458px;word-spacing:0.777941px;text-anchor:start;fill:#6060c0;stroke:#6060c0;stroke-width:2.22269;stroke-linejoin:round"
       id="path347" />
  </g>
</svg>
