<?xml version="1.0" encoding="UTF-8" standalone="no"?>
<svg
   viewBox="0 0 64 64"
   version="1.1"
   id="svg4"
   sodipodi:docname="face-palm.svg"
   inkscape:version="1.3 (0e150ed6c4, 2023-07-21)"
   xmlns:inkscape="http://www.inkscape.org/namespaces/inkscape"
   xmlns:sodipodi="http://sodipodi.sourceforge.net/DTD/sodipodi-0.dtd"
   xmlns="http://www.w3.org/2000/svg"
   xmlns:svg="http://www.w3.org/2000/svg">
  <defs
     id="defs4" />
  <sodipodi:namedview
     id="namedview4"
     pagecolor="#ffffff"
     bordercolor="#000000"
     borderopacity="0.25"
     inkscape:showpageshadow="2"
     inkscape:pageopacity="0.0"
     inkscape:pagecheckerboard="0"
     inkscape:deskcolor="#d1d1d1"
     inkscape:zoom="2.2262815"
     inkscape:cx="-54.350719"
     inkscape:cy="73.890027"
     inkscape:window-width="1920"
     inkscape:window-height="1009"
     inkscape:window-x="-8"
     inkscape:window-y="-8"
     inkscape:window-maximized="1"
     inkscape:current-layer="svg4" />
  <circle
     cx="32"
     cy="32"
     fill="#ffdd67"
     r="30"
     id="circle1"
     style="fill:#5555aa;fill-opacity:1" />
  <path
     d="m53.2 25.7c-3.2-2.7-7.5-3.9-11.7-3.1-.6.1-1.1-2-.4-2.2 4.8-.9 9.8.5 13.5 3.6.6.5-1 2.1-1.4 1.7m-30.7-3.3c-4.2-.7-8.5.4-11.7 3.1-.4.4-2-1.2-1.4-1.7 3.7-3.2 8.7-4.5 13.5-3.6.7.2.2 2.4-.4 2.2"
     fill="#917524"
     id="path1"
     style="fill:#aaaaff;fill-opacity:1" />
  <path
     d="m 35.9,32.2 c 4.2,8 12.7,8 16.9,0 0.2,-0.4 -0.594774,-1.343954 -1,-1 -4.2,3.3 -11.1,3 -14.9,0 -0.6,0.4 -1.2,0.6 -1,1 m -24.7,0 c 4.2,8 12.7,8 16.9,0 0.2,-0.4 -0.3,-0.6 -1,-1 -4.2,3.3 -11.1,3 -14.9,0 -0.7,0.4 -1.2,0.6 -1,1 M 38,50 H 26 c -1.3,0 -1.3,-4 0,-4 h 12 c 1.3,0 1.3,4 0,4"
     fill="#664e27"
     id="path2"
     style="fill:#aaaaff;fill-opacity:1"
     sodipodi:nodetypes="cccccccccccsssc" />
  <path
     d="m28.153 13.324s1.06-2.121-1.68-3.624c-2.828-1.59-6.099 6.099-9.9 7.778 0 0 1.503-2.916-1.06-4.065-2.386-.973-9.016 4.419-10.341 14.937-1.326 10.518 13.081 17.324 21.743 11.314 6.01-4.243 13.7-12.11 12.463-15.291-.972-2.564-4.066-.707-4.066-.707s3.094-3.094.707-5.48c-1.414-1.415-2.563-.266-2.563-.266s2.21-2.917-.177-5.303c-1.944-2.121-5.126.707-5.126.707"
     fill="#fff"
     id="path3" />
  <path
     d="m29.302 12.352c.618-3.27-4.243-4.773-6.276-2.033-1.68 2.386-5.215 5.922-5.215 5.922s.707-1.591-1.06-2.828c-1.768-1.238-6.1-1.326-11.137 10.606-1.857 4.508-1.238 9.192 1.679 12.816 3.182 3.89 8.927 6.453 13.347 5.746 4.95-.707 12.816-6.1 17.942-13.7 3.448-5.039.266-7.337-1.944-6.01 2.386-3.448.177-6.188-1.945-5.481 2.21-4.331-2.74-7.513-5.391-5.038m2.21 6.806c-1.503 1.856-5.658 6.717-5.658 6.717s3.713-2.475 6.453-6.275c2.475-3.36 5.215-.265 1.68 4.33-1.68 2.21-4.685 5.392-4.685 5.392s3.27-2.386 4.596-4.065c3.359-4.42 5.833-1.061 2.74 3.093-5.569 7.336-11.667 11.667-16.087 12.375-6.275.972-17.236-5.746-13.435-16.087 1.68-4.685 5.569-11.225 8.132-10.253 3.624 1.502-.884 6.54-.884 6.54s4.42-3.358 9.37-9.545c1.325-1.68 4.33-.973 3.535 1.944-.62 2.563-5.657 8.309-5.657 8.309s3.005-2.829 6.717-7.248c3.006-3.536 6.983-.089 3.182 4.773"
     fill="#cccfd4"
     id="path4"
     style="stroke:none;fill:#aaaaff;fill-opacity:1" />
</svg>
