<?xml version="1.0" encoding="UTF-8" standalone="no"?>
<!-- Created with Inkscape (http://www.inkscape.org/) -->

<svg
   width="128"
   height="128"
   viewBox="0 0 33.866666 33.866666"
   version="1.1"
   id="svg1"
   inkscape:version="1.3 (0e150ed6c4, 2023-07-21)"
   sodipodi:docname="new_folder.svg"
   xmlns:inkscape="http://www.inkscape.org/namespaces/inkscape"
   xmlns:sodipodi="http://sodipodi.sourceforge.net/DTD/sodipodi-0.dtd"
   xmlns="http://www.w3.org/2000/svg"
   xmlns:svg="http://www.w3.org/2000/svg">
  <sodipodi:namedview
     id="namedview1"
     pagecolor="#ffffff"
     bordercolor="#000000"
     borderopacity="0.25"
     inkscape:showpageshadow="2"
     inkscape:pageopacity="0.0"
     inkscape:pagecheckerboard="0"
     inkscape:deskcolor="#d1d1d1"
     inkscape:document-units="mm"
     showgrid="true"
     inkscape:zoom="4.0970529"
     inkscape:cx="68.707924"
     inkscape:cy="105.31961"
     inkscape:window-width="1920"
     inkscape:window-height="1009"
     inkscape:window-x="-8"
     inkscape:window-y="-8"
     inkscape:window-maximized="1"
     inkscape:current-layer="layer1">
    <inkscape:grid
       id="grid1"
       units="px"
       originx="0"
       originy="0"
       spacingx="0.26458333"
       spacingy="0.26458333"
       empcolor="#0099e5"
       empopacity="0.30196078"
       color="#0099e5"
       opacity="0.14901961"
       empspacing="5"
       dotted="false"
       gridanglex="30"
       gridanglez="30"
       visible="true" />
  </sodipodi:namedview>
  <defs
     id="defs1" />
  <g
     inkscape:label="Layer 1"
     inkscape:groupmode="layer"
     id="layer1">
    <path
       style="fill:none;fill-opacity:1;stroke:#555588;stroke-width:2.64583;stroke-linecap:butt;stroke-linejoin:miter;stroke-dasharray:none;stroke-opacity:1"
       d="m 1.8900353,26.934505 -2e-7,-19.693381 C 1.890035,4.3602431 3.2129517,3.0373264 5.858785,3.0373264 h 2.6539053 c 3.9606787,0 3.9606787,3.9687499 7.9294287,3.9687499 l 7.693112,-1.6e-6 c 2.890222,0 4.213138,1.3229167 4.213138,3.9795143 v 15.875 c 0,2.645833 -1.322916,3.96875 -3.96875,3.96875 H 5.6815098 c -2.4685578,0 -3.7914745,-1.322917 -3.7914745,-3.894834 z"
       id="path1759"
       sodipodi:nodetypes="ccccccccccc" />
    <path
       id="path2723"
       style="fill:#555588;fill-opacity:1;stroke:none;stroke-width:0.264583px;stroke-linecap:butt;stroke-linejoin:miter;stroke-opacity:1"
       d="M 14.668355 11.164693 C 12.097709 11.164693 9.4518063 11.164462 8.5043905 14.954126 L 5.1970988 32.152043 L 25.702307 32.152043 C 28.348137 32.152043 29.933123 31.019992 30.503564 28.822013 L 33.09307 14.496273 C 33.815893 12.152954 32.602836 11.164693 30.038993 11.164693 L 14.668355 11.164693 z M 17.197917 15.875 L 19.84375 15.875 L 19.84375 20.505208 L 24.473958 20.505208 L 24.473958 23.151042 L 19.84375 23.151042 L 19.84375 27.78125 L 17.197917 27.78125 L 17.197917 23.151042 L 12.567708 23.151042 L 12.567708 20.505208 L 17.197917 20.505208 L 17.197917 15.875 z " />
  </g>
</svg>
