<?xml version="1.0" encoding="UTF-8" standalone="no"?>
<!-- Created with Inkscape (http://www.inkscape.org/) -->

<svg
   width="128"
   height="128"
   viewBox="0 0 33.866666 33.866666"
   version="1.1"
   id="svg1"
   inkscape:version="1.3 (0e150ed6c4, 2023-07-21)"
   sodipodi:docname="repeat.svg"
   xmlns:inkscape="http://www.inkscape.org/namespaces/inkscape"
   xmlns:sodipodi="http://sodipodi.sourceforge.net/DTD/sodipodi-0.dtd"
   xmlns="http://www.w3.org/2000/svg"
   xmlns:svg="http://www.w3.org/2000/svg">
  <sodipodi:namedview
     id="namedview1"
     pagecolor="#ffffff"
     bordercolor="#000000"
     borderopacity="0.25"
     inkscape:showpageshadow="2"
     inkscape:pageopacity="0.0"
     inkscape:pagecheckerboard="0"
     inkscape:deskcolor="#d1d1d1"
     inkscape:document-units="mm"
     showgrid="true"
     inkscape:zoom="4.0970529"
     inkscape:cx="36.733721"
     inkscape:cy="90.919011"
     inkscape:window-width="1920"
     inkscape:window-height="1009"
     inkscape:window-x="-8"
     inkscape:window-y="-8"
     inkscape:window-maximized="1"
     inkscape:current-layer="layer1">
    <inkscape:grid
       id="grid1"
       units="px"
       originx="0"
       originy="0"
       spacingx="0.26458333"
       spacingy="0.26458333"
       empcolor="#0099e5"
       empopacity="0.30196078"
       color="#0099e5"
       opacity="0.14901961"
       empspacing="5"
       dotted="false"
       gridanglex="30"
       gridanglez="30"
       visible="true" />
  </sodipodi:namedview>
  <defs
     id="defs1" />
  <g
     inkscape:label="Layer 1"
     inkscape:groupmode="layer"
     id="layer1">
    <g
       id="g5"
       transform="translate(-0.92604117,-0.92604097)">
      <path
         style="fill:#6060c0;fill-opacity:1;stroke:none;stroke-width:2.64583;stroke-linecap:round;stroke-linejoin:round;stroke-dasharray:none;stroke-opacity:1"
         d="m 10.583334,5.2916671 c -5.2916675,-6e-7 -5.2916675,2.6458326 -5.2916673,7.9374989 l 3e-7,5.291667 H 2.645833 l 5.2916667,5.291666 5.2916663,-5.291666 h -2.645833 v -5.291668 c 1e-6,-2.645833 1e-6,-2.645832 2.645833,-2.645832 l 17.197916,-10e-7 c 2.645833,-1e-6 2.645833,-5.2916663 0,-5.2916664 z"
         id="path4"
         sodipodi:nodetypes="cccccccccccc" />
      <path
         style="fill:#6060c0;fill-opacity:1;stroke:none;stroke-width:2.64583;stroke-linecap:round;stroke-linejoin:round;stroke-dasharray:none;stroke-opacity:1"
         d="m 25.135415,30.427081 c 5.291667,10e-7 5.291667,-2.645832 5.291667,-7.937498 v -5.291667 h 2.645834 l -5.291667,-5.291667 -5.291666,5.291667 h 2.645833 v 5.291668 c -1e-6,2.645833 -1e-6,2.645832 -2.645833,2.645832 l -17.1979159,1e-6 c -2.645833,1e-6 -2.645833,5.291666 0,5.291666 z"
         id="path5"
         sodipodi:nodetypes="cccccccccccc" />
    </g>
  </g>
</svg>
