<?xml version="1.0" encoding="UTF-8" standalone="no"?>
<!-- Created with Inkscape (http://www.inkscape.org/) -->

<svg
        width="128"
        height="128"
        viewBox="0 0 33.866666 33.866666"
        version="1.1"
        id="svg1"
        inkscape:version="1.2 (dc2aedaf03, 2022-05-15)"
        sodipodi:docname="settings.svg"
        xmlns:inkscape="http://www.inkscape.org/namespaces/inkscape"
        xmlns:sodipodi="http://sodipodi.sourceforge.net/DTD/sodipodi-0.dtd"
        xmlns="http://www.w3.org/2000/svg"
>
  <sodipodi:namedview
     id="namedview1"
     pagecolor="#ffffff"
     bordercolor="#000000"
     borderopacity="0.25"
     inkscape:showpageshadow="2"
     inkscape:pageopacity="0.0"
     inkscape:pagecheckerboard="0"
     inkscape:deskcolor="#d1d1d1"
     inkscape:document-units="mm"
     showgrid="true"
     inkscape:zoom="4.0970529"
     inkscape:cx="37.221877"
     inkscape:cy="70.29443"
     inkscape:window-width="1920"
     inkscape:window-height="1009"
     inkscape:window-x="-8"
     inkscape:window-y="-8"
     inkscape:window-maximized="1"
     inkscape:current-layer="layer1">
    <inkscape:grid
       id="grid1"
       units="px"
       originx="0"
       originy="0"
       spacingx="0.26458333"
       spacingy="0.26458333"
       empcolor="#0099e5"
       empopacity="0.30196078"
       color="#0099e5"
       opacity="0.14901961"
       empspacing="5"
       dotted="false"
       gridanglex="30"
       gridanglez="30"
       visible="true" />
  </sodipodi:namedview>
  <defs
     id="defs1" />
  <g
     inkscape:label="Layer 1"
     inkscape:groupmode="layer"
     id="layer1">
    <g
       id="g1431"
       transform="rotate(2.5349306,17.010536,17.433124)">
      <g
         id="g1417"
         transform="translate(-0.46302091,-0.66145783)">
        <g
           id="g1185" />
        <g
           id="g1191"
           transform="rotate(-60,17.656188,17.462499)" />
        <g
           id="g1197"
           transform="rotate(-120,17.623285,17.476406)" />
        <g
           id="g1203"
           transform="rotate(180,17.396354,17.590974)" />
        <g
           id="g1209"
           transform="rotate(120,17.331677,17.366731)" />
        <g
           id="g1215"
           transform="rotate(60,17.25745,17.316302)">
          <path
             id="path1213"
             style="fill:#5555aa;fill-opacity:1;stroke:none;stroke-width:0.264583px;stroke-linecap:butt;stroke-linejoin:miter;stroke-opacity:1"
             d="m 25.135416,26.458333 c 1.134989,0.698859 2.176456,1.57856 3.383365,2.138986 1.1517,0.151292 1.37951,-1.225433 1.865445,-1.977976 0.893287,-1.758865 1.827826,-3.498105 2.694957,-5.269414 0.481464,-1.141542 -0.792666,-1.547905 -1.60624,-1.853717 -0.789592,-0.325127 -1.579185,-0.650253 -2.368777,-0.975379 m 0,-1.322917 c 0.03655,4.177341 -2.317166,8.2541 -5.953125,10.311115 m -9.784493,1.07224 c -0.03773,1.332359 -0.278848,2.674147 -0.160733,3.999573 0.444828,1.073048 1.75101,0.581975 2.645698,0.626535 1.969866,-0.105823 3.943361,-0.166109 5.910926,-0.300804 1.229336,-0.153811 0.944192,-1.460423 0.802246,-2.317905 -0.113229,-0.84637 -0.226457,-1.69274 -0.339686,-2.53911 m 1.14568,-0.661459 c -3.603016,2.120592 -8.303234,2.120592 -11.90625,0 M 6.0158858,19.601888 c -1.1727244,0.6335 -2.4553008,1.095587 -3.5440989,1.860587 -0.7068722,0.921756 0.371501,1.807407 0.7802547,2.604511 1.076579,1.653042 2.1155351,3.331997 3.2159684,4.968609 0.7478722,0.98773 1.7368582,0.08748 2.4084861,-0.464186 0.6763636,-0.521244 1.3527269,-1.042488 2.0290909,-1.563732 m 1.14568,0.661458 C 8.4153076,25.61212 6.06159,21.535361 6.0981421,17.35802 M 10.066891,8.0976046 C 8.9319016,7.3987455 7.8904347,6.5190448 6.6835256,5.9586184 5.5318255,5.807327 5.3040156,7.1840513 4.8180806,7.9365942 3.9247937,9.69546 2.9902545,11.4347 2.1231232,13.206009 c -0.481464,1.141542 0.7926667,1.547905 1.60624,1.853717 0.7895925,0.325127 1.5791849,0.650253 2.3687774,0.975379 m 0,1.322917 C 6.0615884,13.180681 8.4153063,9.103922 12.051266,7.0469066 m 9.58317,-0.9779418 c 0.03773,-1.3323591 0.278845,-2.6741461 0.160734,-3.9995731 -0.444828,-1.07304734 -1.751011,-0.5819743 -2.6457,-0.6265349 -1.969866,0.1058236 -3.943361,0.1661091 -5.910926,0.3008057 -1.229335,0.1538108 -0.94419,1.4604221 -0.802245,2.3179033 0.113228,0.8463703 0.226457,1.6927405 0.339685,2.5391107 M 11.630305,7.262135 c 3.599407,-2.1203255 8.306843,-2.1203255 11.90625,0 m 5.577109,7.802664 c 1.172724,-0.6335 2.455301,-1.095587 3.544099,-1.860587 0.706872,-0.921756 -0.371501,-1.807407 -0.780255,-2.604511 C 30.800929,8.9466591 29.761973,7.2677047 28.66154,5.6310922 27.913668,4.6433614 26.924682,5.5436096 26.253054,6.0952783 25.57669,6.6165224 24.900326,7.1377664 24.223962,7.6590105 M 23.078283,6.997552 c 3.638494,2.0612687 5.987239,6.128947 5.953125,10.311115" />
        </g>
      </g>
      <ellipse
         style="fill:#5555aa;fill-opacity:1;stroke:none;stroke-width:2.64583;stroke-linecap:round;stroke-linejoin:round;stroke-opacity:1"
         id="path1408"
         cx="16.933332"
         cy="16.933332"
         rx="12.567708"
         ry="11.906251" />
      <ellipse
         style="fill:#ffffff;fill-opacity:1;stroke:none;stroke-width:2.64583;stroke-linecap:round;stroke-linejoin:round;stroke-opacity:1"
         id="path1419"
         cx="16.933332"
         cy="16.933332"
         rx="5.291667"
         ry="5.291666" />
    </g>
  </g>
</svg>
